<svg version="1.1" id="Laag_1" xmlns="http://www.w3.org/2000/svg" xmlns:xlink="http://www.w3.org/1999/xlink" x="0px" y="0px"
	 viewBox="0 0 20 20" style="enable-background:new 0 0 20 20;" xml:space="preserve">

<path class="st0" d="M16.9,2.1h-2.1V1.9c0-0.6-0.4-1-1-1s-1,0.4-1,1v0.2H7.3V1.9c0-0.6-0.4-1-1-1s-1,0.4-1,1v0.2H3.1
	c-0.6,0-1,0.4-1,1v13.8c0,0.6,0.4,1,1,1h13.8c0.6,0,1-0.4,1-1V3.1C17.9,2.6,17.4,2.1,16.9,2.1z M5.3,4.1v0.2c0,0.6,0.4,1,1,1
	s1-0.4,1-1V4.1h5.5v0.2c0,0.6,0.4,1,1,1s1-0.4,1-1V4.1h1.1v1.8H4.1V4.1H5.3z M4.1,15.9v-8h11.8v8H4.1z"/>
</svg>
