<svg  viewBox="0 0 16 16" version="1.1" xmlns="http://www.w3.org/2000/svg" xmlns:xlink="http://www.w3.org/1999/xlink">
    <title>download</title>
    <g id="download" stroke="none" stroke-width="1" fill="none" fill-rule="evenodd">
        <path d="M8,14.5 C9.17708333,14.5 10.2708333,14.203125 11.28125,13.609375 C12.2604167,13.0364583 13.0364583,12.2604167 13.609375,11.28125 C14.203125,10.2708333 14.5,9.17708333 14.5,8 C14.5,6.82291667 14.203125,5.72916667 13.609375,4.71875 C13.0364583,3.73958333 12.2604167,2.96354167 11.28125,2.390625 C10.2708333,1.796875 9.17708333,1.5 8,1.5 C6.82291667,1.5 5.72916667,1.796875 4.71875,2.390625 C3.73958333,2.96354167 2.96354167,3.73958333 2.390625,4.71875 C1.796875,5.72916667 1.5,6.82291667 1.5,8 C1.5,9.17708333 1.796875,10.2708333 2.390625,11.28125 C2.96354167,12.2604167 3.73958333,13.0364583 4.71875,13.609375 C5.72916667,14.203125 6.82291667,14.5 8,14.5 Z M8,13.5 C7,13.5 6.07291667,13.25 5.21875,12.75 C4.39583333,12.2604167 3.73958333,11.6041667 3.25,10.78125 C2.75,9.92708333 2.5,9 2.5,8 C2.5,7 2.75,6.07291667 3.25,5.21875 C3.73958333,4.39583333 4.39583333,3.73958333 5.21875,3.25 C6.07291667,2.75 7,2.5 8,2.5 C9,2.5 9.92708333,2.75 10.78125,3.25 C11.6041667,3.73958333 12.2604167,4.39583333 12.75,5.21875 C13.25,6.07291667 13.5,7 13.5,8 C13.5,9 13.25,9.92708333 12.75,10.78125 C12.2604167,11.6041667 11.6041667,12.2604167 10.78125,12.75 C9.92708333,13.25 9,13.5 8,13.5 Z M8,11.5625 L11.203125,8.359375 L10.5,7.640625 L8.5,9.640625 L8.5,4.5 L7.5,4.5 L7.5,9.640625 L5.5,7.640625 L4.796875,8.359375 L8,11.5625 Z" fill-rule="nonzero"></path>
    </g>
</svg>