<?xml version="1.0" encoding="utf-8"?>
<!-- Generator: Adobe Illustrator 24.3.0, SVG Export Plug-In . SVG Version: 6.00 Build 0)  -->
<svg version="1.1" id="Laag_1" xmlns="http://www.w3.org/2000/svg" xmlns:xlink="http://www.w3.org/1999/xlink" x="0px" y="0px"
	 viewBox="0 0 16 16" style="enable-background:new 0 0 16 16;" xml:space="preserve">
<style type="text/css">
	.st0{fill:none;}
</style>
<g id="download">
	<path class="st0" d="M14.5,8c0-1.2-0.3-2.3-0.9-3.3c-0.6-1-1.3-1.8-2.3-2.3c-1-0.6-2.1-0.9-3.3-0.9S5.7,1.8,4.7,2.4
		C3.7,3,3,3.7,2.4,4.7C1.8,5.7,1.5,6.8,1.5,8s0.3,2.3,0.9,3.3c0.6,1,1.3,1.8,2.3,2.3c1,0.6,2.1,0.9,3.3,0.9s2.3-0.3,3.3-0.9
		c1-0.6,1.8-1.3,2.3-2.3C14.2,10.3,14.5,9.2,14.5,8z M13.5,8c0,1-0.2,1.9-0.8,2.8c-0.5,0.8-1.1,1.5-2,2C9.9,13.2,9,13.5,8,13.5
		s-1.9-0.2-2.8-0.8c-0.8-0.5-1.5-1.1-2-2C2.8,9.9,2.5,9,2.5,8s0.2-1.9,0.8-2.8c0.5-0.8,1.1-1.5,2-2C6.1,2.8,7,2.5,8,2.5
		s1.9,0.2,2.8,0.8c0.8,0.5,1.5,1.1,2,2C13.2,6.1,13.5,7,13.5,8z M11.6,8L8.4,4.8L7.6,5.5l2,2H4.5v1h5.1l-2,2l0.7,0.7L11.6,8z"/>
</g>
</svg>
