<svg width="269px" height="37px" viewBox="0 0 269 37" version="1.1" xmlns="http://www.w3.org/2000/svg" xmlns:xlink="http://www.w3.org/1999/xlink">
    <g stroke="none" stroke-width="1" fill="none" fill-rule="evenodd">
        <g transform="translate(-516.000000, -4460.000000)" fill="#F8AD0C">
            <path d="M569.779062,4462.86682 C579.203602,4462.86682 586.839375,4470.50587 586.839375,4479.93368 C586.839375,4489.36149 579.203602,4497.00053 569.779062,4497.00053 C560.347983,4497.00053 552.705669,4489.36149 552.705669,4479.93368 C552.705669,4470.50587 560.347983,4462.86682 569.779062,4462.86682 Z M643.778045,4463.46264 L653.140452,4478.43988 L662.515939,4463.46264 L672.025502,4463.46264 L672.025502,4495.6964 L660.17125,4495.6964 L660.17125,4478.79632 L649.020077,4496.62185 L638.660279,4478.3058 L638.660279,4495.6964 L633.470569,4495.6964 L633.470569,4463.46264 L643.778045,4463.46264 Z M701.283758,4463.44237 L713.602369,4495.6892 L700.15883,4495.6892 L698.347173,4491.19276 L684.844771,4491.23855 L682.984063,4495.70883 L677.320183,4495.6892 L690.292822,4463.44237 L701.283758,4463.44237 Z M592.054265,4463.46297 L615.059689,4463.46951 C619.994328,4463.46951 624.000248,4467.47216 624.000248,4472.41007 C624.000248,4476.47158 621.295843,4479.88888 617.590776,4480.9811 L628.120622,4495.69673 L613.781065,4495.69673 L604.405578,4481.35717 L604.405578,4495.69673 L592.054265,4495.69673 L592.054265,4463.46297 Z M726.406597,4463.46264 L742.521839,4479.93106 L742.521839,4463.46264 L747.623255,4463.46264 L747.623255,4495.6964 L739.46426,4495.6964 L725.55309,4480.14362 L725.55309,4495.6964 L718.944141,4495.6964 L718.944141,4463.46264 L726.406597,4463.46264 Z M763.091991,4463.46264 L779.213774,4479.93106 L779.213774,4463.46264 L784.325,4463.46264 L784.325,4495.6964 L776.152924,4495.6964 L762.248295,4480.14362 L762.248295,4495.6964 L755.629535,4495.6964 L755.629535,4463.46264 L763.091991,4463.46264 Z M547.360628,4463.44204 L547.383519,4495.69542 L535.313438,4495.69542 L535.313438,4482.63448 L528.073351,4482.63448 L528.073351,4495.69542 L516,4495.69542 L516,4463.46166 L528.073351,4463.46166 L528.073351,4476.66975 L535.313438,4476.66975 L535.290547,4463.44204 L547.360628,4463.44204 Z M573.314082,4468.42279 L565.94319,4468.42933 L565.94319,4491.01618 L573.314082,4491.0031 L573.314082,4468.42279 Z M691.66301,4473.96894 L686.777423,4485.99978 L696.313147,4485.98343 L691.66301,4473.96894 Z M611.645665,4468.50879 L604.405578,4468.50879 L604.405578,4478.73452 L611.645665,4478.7149 L611.645665,4468.50879 Z M553.830597,4460.04339 C555.665145,4460.04339 557.136707,4461.52476 557.136707,4463.35931 C557.136707,4465.19386 555.665145,4466.67523 553.830597,4466.67523 C552.00259,4466.67523 550.521217,4465.19386 550.521217,4463.35931 C550.521217,4461.52476 552.00259,4460.04339 553.830597,4460.04339 Z M585.695154,4459.99859 C587.529701,4459.99859 589.007804,4461.47996 589.007804,4463.31451 C589.007804,4465.14905 587.529701,4466.63043 585.695154,4466.63043 C583.867146,4466.63043 582.385773,4465.14905 582.385773,4463.31451 C582.385773,4461.47996 583.867146,4459.99859 585.695154,4459.99859 Z" id="Hörmann"></path>
        </g>
    </g>
</svg>