
<svg viewBox="0 0 15 20" version="1.1" xmlns="http://www.w3.org/2000/svg" xmlns:xlink="http://www.w3.org/1999/xlink">
    <g id="Ontwerpvoorstel" stroke="none" stroke-width="1" fill="none" fill-rule="evenodd">
        <g id="Productpagina" transform="translate(-1014.000000, -970.000000)" fill="#555555" fill-rule="nonzero">
            <g id="file-pdf-copy-2" transform="translate(1014.000000, 970.000000)">
                <path d="M14.4463972,3.82737747 L11.1696934,0.550673697 C10.8181996,0.199179848 10.3417301,-2.22218043e-16 9.84573326,-2.22218043e-16 L1.87463386,-2.22218043e-16 C0.83967975,0.00390548721 0,0.843585237 0,1.87853935 L0,18.1253661 C0,19.1603202 0.83967975,20 1.87463386,20 L13.122437,20 C14.1573911,20 14.9970709,19.1603202 14.9970709,18.1253661 L14.9970709,5.15524312 C14.9970709,4.65924624 14.797891,4.17887131 14.4463972,3.82737747 Z M12.970123,5.00292912 L9.99804726,5.00292912 L9.99804726,2.03085335 L12.970123,5.00292912 Z M1.87463386,18.1253661 L1.87463386,1.87853935 L8.1234134,1.87853935 L8.1234134,5.94024605 C8.1234134,6.45967584 8.54130053,6.87756298 9.06073033,6.87756298 L13.122437,6.87756298 L13.122437,18.1253661 L1.87463386,18.1253661 Z M11.6461629,12.513181 C11.1696934,12.0445226 9.81058387,12.1734036 9.1310291,12.2593244 C8.4592853,11.8492482 8.01015427,11.2829525 7.6938098,10.4510838 C7.8461238,9.82230033 8.08826401,8.86545597 7.90470611,8.26401094 C7.74067565,7.24077329 6.42843195,7.34231595 6.24096856,8.03358719 C6.06912712,8.66237063 6.22534661,9.53719977 6.51435267,10.6541691 C6.12380394,11.5875806 5.54188635,12.8412419 5.13181019,13.5598516 C4.35071275,13.9621168 3.2962312,14.5830892 3.14001172,15.3641867 C3.01113064,15.9812537 4.15543839,17.5200156 6.11208748,14.1456747 C6.98691662,13.8566686 7.9398555,13.5012693 8.78344073,13.3606717 C9.52157782,13.7590314 10.3846905,14.0246046 10.9627026,14.0246046 C11.9586018,14.0246046 12.056239,12.9232572 11.6461629,12.513181 Z M3.9093927,15.5516501 C4.10857254,15.0165983 4.86623706,14.3995313 5.09666081,14.1847295 C4.35461824,15.3680922 3.9093927,15.5789885 3.9093927,15.5516501 Z M7.09627026,8.10779145 C7.38527631,8.10779145 7.3579379,9.36145284 7.16656903,9.70123023 C6.99472759,9.15836751 6.99863308,8.10779145 7.09627026,8.10779145 L7.09627026,8.10779145 Z M6.14333138,13.442687 C6.52216364,12.7826596 6.84631908,11.9976567 7.10798672,11.3063855 C7.43214216,11.896114 7.8461238,12.368678 8.28353837,12.6928334 C7.47119703,12.8607694 6.76430385,13.2044523 6.14333138,13.442687 L6.14333138,13.442687 Z M11.2829525,13.2474126 C11.2829525,13.2474126 11.0876782,13.4817418 9.82620582,12.9427846 C11.1970318,12.8412419 11.4235501,13.1536809 11.2829525,13.2474126 Z" id="Shape"></path>
            </g>
        </g>
    </g>
</svg>