
<svg viewBox="0 0 20 20" version="1.1" xmlns="http://www.w3.org/2000/svg" xmlns:xlink="http://www.w3.org/1999/xlink">
    <g id="Ontwerpvoorstel" stroke="none" stroke-width="1" fill="none" fill-rule="evenodd">
        <g id="Productpagina" transform="translate(-1012.000000, -937.000000)">
            <g id="phone-bold" transform="translate(1012.000000, 937.000000)">
                <rect id="Rectangle" x="0" y="0" width="20" height="20"></rect>
                <path d="M7.22471016,9.75119375 C7.87301938,11.0766129 8.94739464,12.1461067 10.2757523,12.7883734 C10.4734851,12.8820726 10.7059853,12.8644819 10.8873695,12.7420992 L12.8432813,11.4378539 C13.0190247,11.3206647 13.2420703,11.3001744 13.4362234,11.3833828 L17.0953641,12.9515859 C17.3507226,13.0600567 17.5035652,13.3243333 17.4702344,13.5997656 C17.2309594,15.4720918 15.6375534,16.875 13.75,16.875 C7.88197453,16.875 3.125,12.1180255 3.125,6.25 C3.125,4.36244663 4.52790823,2.76904061 6.40023437,2.52976563 C6.67566399,2.49643421 6.93993905,2.64927276 7.0484125,2.90462734 L8.61798359,6.56696094 C8.70044134,6.75936252 8.6811051,6.98026856 8.566475,7.15541875 L7.26675703,9.14133516 C7.14642125,9.32306579 7.13045337,9.55466797 7.22471016,9.75119375 Z" id="Path" stroke="#555555" stroke-width="2" stroke-linecap="round" stroke-linejoin="round"></path>
            </g>
        </g>
    </g>
</svg>